<svg width="258" height="171" viewBox="0 0 258 171" fill="none" xmlns="http://www.w3.org/2000/svg">
<rect x="22.7479" width="238" height="131" rx="16" transform="rotate(10 22.7479 0)" fill="url(#paint0_linear_42_96)"/>
<path d="M36.9227 102.011L37.6562 97.8514C39.7584 98.0921 41.3173 97.912 42.3331 97.3113C43.3488 96.7106 44.1161 95.6761 44.635 94.2079C45.1649 92.6766 45.6299 90.7765 46.03 88.5075L47.8749 78.5973L35.7142 49.1584C34.7796 46.719 34.0526 44.5762 33.5333 42.73C33.0771 40.8949 32.8859 39.399 32.9599 38.2423C31.9403 38.1275 30.9894 37.9923 30.107 37.8367C29.2246 37.6811 28.3367 37.557 27.4432 37.4645L28.36 32.2647L53.8862 36.7657L53.1527 40.9255C50.6427 40.4179 48.7223 40.4367 47.3914 40.9819C46.1236 41.5382 45.4249 42.5523 45.2953 44.0241C45.1769 45.433 45.5182 47.1828 46.3193 49.2737L51.6876 62.5029C52.0585 63.3481 52.4701 64.3305 52.9226 65.4501C53.3751 66.5697 53.822 67.7208 54.2633 68.9034C54.7788 70.0341 55.2257 71.1852 55.604 72.3567L55.7931 72.39C56.5715 71.2925 57.4241 70.1431 58.3507 68.9417C59.3516 67.6885 60.3746 66.3092 61.4199 64.8038L70.7665 52.7071C71.1928 52.1324 71.7414 51.4168 72.4123 50.5602C73.0832 49.7037 73.7856 48.8528 74.5196 48.0074C75.3277 47.1101 76.1024 46.4019 76.8439 45.8827C75.6982 45.7457 74.4266 45.5865 73.0289 45.405C71.7053 45.1716 70.5022 44.992 69.4196 44.8661L70.3365 39.6663L90.0956 43.1504L89.3622 47.3102C86.5445 47.0733 84.0291 47.7021 81.816 49.1965C79.677 50.6389 77.2286 53.0992 74.4707 56.5771C71.6907 60.1811 68.9532 63.7276 66.2584 67.2167C63.5747 70.6427 60.9652 74.0168 58.4298 77.339C58.252 78.3475 57.9926 79.634 57.6517 81.1986C57.3739 82.7743 57.0961 84.35 56.8182 85.9256C56.5404 87.5013 56.2959 88.888 56.0847 90.0855C55.8847 91.22 55.7569 91.9448 55.7013 92.2599C55.4013 93.9617 55.0975 95.5003 54.7899 96.8758C54.5566 98.1994 54.3046 99.2597 54.0341 100.057C55.3169 100.153 56.6516 100.323 58.0382 100.568C59.4989 100.761 60.7706 100.92 61.8532 101.046L60.9363 106.245L36.9227 102.011ZM98.043 114.348C93.5681 113.559 89.7121 111.839 86.4752 109.189C83.2382 106.539 80.865 103.228 79.3555 99.2578C77.9202 95.2354 77.6193 90.8607 78.4528 86.1336C79.353 81.0284 81.1876 76.7053 83.9565 73.1643C86.7996 69.5714 90.2175 66.9572 94.2101 65.3217C98.2028 63.6861 102.405 63.2573 106.817 64.0353C111.292 64.8243 115.142 66.5756 118.368 69.2889C121.605 71.9393 123.941 75.2757 125.377 79.298C126.886 83.2684 127.224 87.6172 126.391 92.3443C125.513 97.3235 123.684 101.615 120.904 105.219C118.124 108.823 114.737 111.443 110.744 113.078C106.815 114.725 102.581 115.148 98.043 114.348ZM99.5383 109.738C102.575 110.208 105.105 109.679 107.129 108.152C109.216 106.635 110.888 104.525 112.144 101.822C113.412 99.0565 114.318 96.1294 114.862 93.041C115.34 90.3308 115.555 87.6392 115.506 84.9662C115.532 82.2412 115.23 79.7184 114.599 77.3976C113.968 75.0768 112.945 73.1417 111.528 71.5922C110.123 69.9797 108.249 68.9993 105.906 68.6512C102.943 68.1288 100.356 68.6149 98.1425 70.1093C95.9924 71.6148 94.2206 73.7394 92.827 76.483C91.5075 79.1748 90.5644 82.1279 89.9976 85.3423C89.3419 89.061 89.1923 92.6739 89.5487 96.181C89.9051 99.6882 90.8713 102.686 92.4473 105.173C94.0863 107.672 96.45 109.193 99.5383 109.738ZM147.123 147.86C141.577 146.882 137.213 145.463 134.032 143.602C130.902 141.815 128.754 139.812 127.585 137.591C126.469 135.445 126.1 133.3 126.478 131.157C126.778 129.455 127.434 127.946 128.446 126.63C129.521 125.325 130.82 124.222 132.344 123.321C133.856 122.483 135.488 121.893 137.237 121.552C135.154 120.469 133.656 119.198 132.743 117.737C131.842 116.214 131.558 114.506 131.892 112.616C132.248 110.599 133.385 108.752 135.306 107.076C137.289 105.411 139.854 104.499 143.002 104.339C140.388 102.578 138.441 100.35 137.162 97.6554C135.882 94.9602 135.5 91.9684 136.015 88.6798C136.619 84.8871 138.148 81.7448 140.602 79.2531C143.119 76.7725 146.06 75.0166 149.426 73.9855C152.856 72.9655 156.272 72.7555 159.675 73.3556C161.629 73.7002 163.596 74.3394 165.576 75.2734C167.567 76.1444 169.313 77.2971 170.815 78.7317C171.831 77.0261 173.039 75.5171 174.44 74.2044C175.842 72.8918 177.376 71.9277 179.045 71.312C180.776 70.7075 182.492 70.5552 184.194 70.8553C186.022 71.1776 187.325 71.8948 188.104 73.0069C188.883 74.119 189.133 75.4629 188.855 77.0386C188.766 77.5428 188.498 78.1453 188.049 78.8461C187.675 79.4949 187.096 80.0103 186.314 80.3923C185.532 80.7743 184.542 80.8597 183.345 80.6485C182.336 80.4707 181.478 79.9944 180.77 79.2197C180.135 78.393 179.807 77.4903 179.785 76.5116C178.417 76.5303 177.175 77.1236 176.059 78.2916C175.018 79.4077 174.254 80.6053 173.768 81.8844C175.152 83.623 176.107 85.5786 176.633 87.751C177.234 89.8716 177.335 92.0664 176.934 94.3354C176.301 97.928 174.763 100.939 172.32 103.367C169.94 105.807 167.067 107.543 163.701 108.574C160.335 109.605 156.855 109.804 153.263 109.17C152.191 108.981 151.194 108.74 150.271 108.448C149.359 108.092 148.335 107.814 147.201 107.614C145.184 107.258 143.43 107.437 141.94 108.149C140.513 108.872 139.84 109.923 139.922 111.302C139.993 112.744 141.155 113.891 143.409 114.744C145.663 115.596 148.98 116.506 153.359 117.473C158.178 118.518 162.233 119.85 165.521 121.47C168.884 123.037 171.333 124.997 172.868 127.347C174.467 129.708 174.96 132.622 174.349 136.089C173.893 138.673 172.763 140.846 170.957 142.607C169.215 144.379 167.03 145.716 164.401 146.617C161.825 147.593 159.026 148.171 156.004 148.354C152.983 148.536 150.022 148.371 147.123 147.86ZM148.791 143.377C153.896 144.278 158.002 144.027 161.109 142.625C164.278 141.234 166.074 139.341 166.497 136.946C166.852 134.929 166.437 133.231 165.25 131.852C164.053 130.536 162.238 129.404 159.805 128.455C157.425 127.581 154.57 126.817 151.241 126.165C149.624 125.75 147.971 125.361 146.28 124.998C144.59 124.635 143.042 124.2 141.637 123.692C140.009 124.445 138.658 125.474 137.583 126.779C136.571 128.095 135.895 129.536 135.554 131.1C135.042 133.999 135.986 136.57 138.385 138.813C140.784 141.056 144.253 142.577 148.791 143.377ZM154.33 104.777C156.473 105.155 158.332 104.93 159.908 104.103C161.557 103.224 162.89 101.932 163.906 100.226C164.995 98.469 165.735 96.4872 166.124 94.2813C166.579 91.6971 166.629 89.2039 166.273 86.8015C165.917 84.3992 165.136 82.3769 163.931 80.7347C162.726 79.0924 160.988 78.0713 158.719 77.6712C155.631 77.1266 153.019 77.9334 150.884 80.0914C148.749 82.2494 147.376 85.0617 146.765 88.5282C146.276 91.3014 146.215 93.8577 146.582 96.197C147.024 98.4844 147.89 100.392 149.18 101.919C150.47 103.446 152.187 104.399 154.33 104.777ZM209.761 132.487C209.813 131.457 209.874 130.558 209.944 129.79C210.014 129.023 210.059 128.218 210.077 127.377C207.556 129.142 204.967 130.375 202.309 131.076C199.662 131.714 197.015 131.799 194.368 131.333C189.83 130.533 186.589 128.824 184.646 126.207C182.777 123.538 182.137 120.533 182.726 117.192C183.237 114.293 184.533 111.922 186.612 110.079C188.692 108.236 191.235 106.898 194.242 106.063C197.259 105.165 200.463 104.69 203.851 104.638C207.251 104.523 210.526 104.743 213.678 105.298L214.661 99.7204C215.017 97.7035 215.156 95.8108 215.078 94.0424C215.011 92.211 214.473 90.6539 213.464 89.3713C212.53 88.0367 210.833 87.1528 208.375 86.7193C206.748 86.3674 205.054 86.3935 203.293 86.7979C201.543 87.1392 200.093 87.9884 198.944 89.3455C199.359 89.9386 199.569 90.593 199.573 91.3085C199.651 91.9721 199.64 92.5875 199.54 93.1548C199.384 94.0372 198.828 94.9789 197.872 95.9801C196.926 96.9182 195.545 97.1946 193.729 96.8093C192.216 96.5425 191.139 95.8327 190.497 94.6798C189.93 93.475 189.769 92.1792 190.013 90.7926C190.413 88.5236 191.588 86.6512 193.538 85.1754C195.551 83.7107 198.096 82.7297 201.173 82.2325C204.25 81.7353 207.585 81.8034 211.178 82.4369C216.598 83.3926 220.382 85.522 222.529 88.825C224.739 92.1392 225.305 96.8531 224.227 102.967C223.827 105.236 223.443 107.41 223.077 109.49C222.71 111.57 222.312 113.644 221.882 115.713C221.515 117.793 221.126 119.999 220.715 122.331C220.548 123.277 220.328 124.342 220.054 125.529C219.779 126.715 219.463 127.959 219.103 129.26C220.186 129.386 221.3 129.518 222.445 129.655C223.591 129.792 224.668 129.949 225.677 130.127L224.793 135.138L209.761 132.487ZM212.911 109.647C210.872 109.418 208.742 109.335 206.521 109.398C204.363 109.472 202.356 109.801 200.499 110.383C198.641 110.965 197.055 111.855 195.739 113.053C194.486 114.262 193.687 115.843 193.342 117.797C193.091 119.962 193.506 121.66 194.589 122.891C195.735 124.133 197.19 124.909 198.955 125.22C201.161 125.609 203.187 125.544 205.033 125.025C206.89 124.443 208.772 123.54 210.677 122.316C210.736 121.611 210.827 120.913 210.949 120.219C211.083 119.463 211.222 118.675 211.366 117.856C211.466 117.288 211.649 116.248 211.916 114.736C212.257 113.171 212.589 111.475 212.911 109.647Z" fill="white"/>
<defs>
<linearGradient id="paint0_linear_42_96" x1="22.7479" y1="65.5" x2="194.825" y2="-28.9639" gradientUnits="userSpaceOnUse">
<stop stop-color="#FF52AF"/>
<stop offset="1" stop-color="#9F53FF"/>
</linearGradient>
</defs>
</svg>
